<?xml version="1.0" encoding="UTF-8" standalone="no"?>
<svg
   width="176.44299"
   height="184.23199"
   viewBox="0 0 176.443 184.232"
   version="1.1"
   id="svg4"
   sodipodi:docname="hugeicons--dental-braces.svg"
   inkscape:version="1.4.2 (f4327f4, 2025-05-13)"
   xmlns:inkscape="http://www.inkscape.org/namespaces/inkscape"
   xmlns:sodipodi="http://sodipodi.sourceforge.net/DTD/sodipodi-0.dtd"
   xmlns="http://www.w3.org/2000/svg"
   xmlns:svg="http://www.w3.org/2000/svg">
  <defs
     id="defs4" />
  <sodipodi:namedview
     id="namedview4"
     pagecolor="#505050"
     bordercolor="#ffffff"
     borderopacity="1"
     inkscape:showpageshadow="0"
     inkscape:pageopacity="0"
     inkscape:pagecheckerboard="1"
     inkscape:deskcolor="#505050"
     inkscape:zoom="1.0520833"
     inkscape:cx="-198.65346"
     inkscape:cy="269.94059"
     inkscape:window-width="1920"
     inkscape:window-height="1010"
     inkscape:window-x="-6"
     inkscape:window-y="-6"
     inkscape:window-maximized="1"
     inkscape:current-layer="svg4" />
  <path
     style="fill:#d70050;fill-opacity:1;stroke-width:10;paint-order:stroke markers fill"
     d="m 3.11829,82.15525 c 8.39008,9.26511 12.60106,12.77531 22.5259,20.32057 8.19208,23.77021 25.68822,64.10273 28.66933,63.95466 2.98111,-0.14807 3.1127,-22.64756 15.75238,-40.32609 6.45475,3.89815 7.94102,5.22261 13.232,9.13638 -17.29417,27.98844 -6.55577,48.16228 -27.89291,48.51732 -22.38655,0.57782 -40.19868,-62.4541 -52.2867,-101.60284 z"
     id="path2-1"
     sodipodi:nodetypes="cczcccc" />
  <path
     id="path1-1-7-4"
     style="display:inline;fill:#d70050;fill-opacity:1;stroke-width:10;paint-order:stroke markers fill"
     d="M 50.347656 0.0234375 C 27.885096 -0.3176725 -0.21655688 19.070437 0.001953125 53.935547 C 0.092680897 68.411918 8.0523661 79.816134 18.720703 88.921875 C 18.165738 87.517461 17.859597 85.993242 17.859375 84.404297 C 17.858731 79.11002 21.249408 74.529342 25.955078 72.736328 C 20.048394 66.963408 16.279113 60.658738 16.041016 53.490234 C 15.000756 22.171304 40.606346 17.961416 48.566406 16.509766 C 69.128386 15.373166 87.328125 42.351562 87.328125 42.351562 C 87.328125 42.351562 108.08988 14.585016 126.08984 16.509766 C 157.95191 21.900036 159.9339 46.263523 160.00586 52.914062 C 159.10882 60.75127 155.66431 67.174592 150.67188 72.650391 C 155.49677 74.3802 158.9987 79.024475 158.99805 84.404297 C 158.99789 85.52159 158.8472 86.606322 158.56445 87.640625 C 169.18551 78.567755 176.68382 67.325727 176.4375 52.597656 C 175.77547 13.013376 144.74869 -0.1887725 127.42773 0.0234375 C 106.01114 -0.7094725 88.21875 15.617187 88.21875 15.617188 C 88.21875 15.617188 72.810206 0.3645575 50.347656 0.0234375 z M 30.333984 81.929688 C 28.908294 81.929515 27.859202 82.978607 27.859375 84.404297 C 27.859574 85.829686 28.908595 86.877127 30.333984 86.876953 L 45.414062 86.876953 C 42.685506 85.255867 40.050443 83.610339 37.552734 81.929688 L 30.333984 81.929688 z M 139.72656 81.929688 C 137.18216 83.669312 134.49737 85.309281 131.73242 86.876953 L 146.52539 86.876953 C 147.95048 86.876755 148.99785 85.829386 148.99805 84.404297 C 148.99822 82.978907 147.95078 81.929886 146.52539 81.929688 L 139.72656 81.929688 z M 172.50391 83.501953 C 172.50391 83.501953 163.25731 95.509132 150.15039 101.60742 C 145.54975 118.73235 127.3225 165.4278 122.08008 165.32031 C 116.83767 165.21279 121.97094 144.07385 105.15039 125.66797 C 102.77251 122.51478 99.678256 119.5261 96.074219 116.65234 C 94.557261 116.75854 93.034721 116.80664 91.517578 116.80664 C 87.370322 116.80664 83.188021 116.44185 79.171875 115.53711 C 75.455829 114.69996 70.697673 113.36955 66.625 109.29688 C 62.594411 105.26627 61.26266 100.57576 60.423828 96.876953 L 30.333984 96.876953 C 30.023137 96.876991 29.715671 96.864724 29.410156 96.841797 C 42.390874 105.31054 56.673956 111.31492 65.496094 115.86523 C 84.909504 125.87834 95.005732 132.43791 102.10742 146.07422 C 109.20911 159.85713 104.38004 184.12547 121.48242 184.21875 C 136.06443 184.94213 149.34615 156.91686 158.82227 129.70898 C 168.2984 102.50112 172.50391 83.501953 172.50391 83.501953 z M 112.36914 96.742188 C 105.9279 99.88559 99.760309 102.9762 94.560547 106.33594 C 94.744978 106.45741 94.925591 106.57621 95.101562 106.69336 C 97.393343 106.54454 99.609966 106.24638 101.66602 105.7832 C 105.07995 105.01411 107.09849 104.46987 109.3418 102.22656 C 111.05938 100.50897 111.78008 98.923414 112.36914 96.742188 z M 122.61328 96.876953 C 121.77445 100.57578 120.44269 105.26628 116.41211 109.29688 C 112.86227 112.84671 108.79115 114.31317 105.34375 115.18555 C 105.94904 115.77694 106.60329 116.41929 107.32031 117.125 C 118.03461 111.22255 132.68685 104.99873 145.74414 96.876953 L 122.61328 96.876953 z M 74.189453 102.69727 C 75.47928 103.86142 76.73445 104.49838 78.271484 104.98828 C 76.927661 104.22082 75.564735 103.4583 74.189453 102.69727 z " />
  <path
     id="path4"
     style="baseline-shift:baseline;display:inline;overflow:visible;vector-effect:none;stroke-linecap:round;enable-background:accumulate;stop-color:#000000;stop-opacity:1;opacity:1;fill:#d70050;fill-opacity:1"
     d="M 91.517578 57 C 87.667615 57 83.836483 57.343367 80.271484 58.146484 C 76.706486 58.949602 73.31815 59.886922 70.160156 63.044922 C 67.002159 66.202916 66.064837 69.59125 65.261719 73.15625 C 64.984769 74.385617 64.762222 75.646863 64.589844 76.929688 L 30.333984 76.929688 A 7.4737 7.4737 0 0 0 22.859375 84.404297 A 7.4737 7.4737 0 0 0 30.333984 91.876953 L 64.589844 91.876953 C 64.762232 93.159658 64.98473 94.420852 65.261719 95.650391 C 66.064837 99.215391 67.00216 102.60372 70.160156 105.76172 C 73.318151 108.91972 76.706486 109.85704 80.271484 110.66016 C 83.836483 111.46327 87.667615 111.80664 91.517578 111.80664 C 95.367541 111.80664 99.200621 111.46327 102.76562 110.66016 C 106.33061 109.85704 109.71896 108.91971 112.87695 105.76172 C 116.03494 102.60372 116.97228 99.215389 117.77539 95.650391 C 118.05238 94.420853 118.27488 93.159659 118.44727 91.876953 L 146.52539 91.876953 A 7.4737 7.4737 0 0 0 153.99805 84.404297 A 7.4737 7.4737 0 0 0 146.52539 76.929688 L 118.44727 76.929688 C 118.27489 75.646863 118.05234 74.385616 117.77539 73.15625 C 116.97228 69.591252 116.03494 66.202919 112.87695 63.044922 C 109.71896 59.886926 106.33062 58.949602 102.76562 58.146484 C 99.200621 57.343367 95.367542 57 91.517578 57 z M 91.517578 71.947266 C 94.41885 71.947266 97.339303 72.246157 99.480469 72.728516 C 100.79511 73.024676 101.78266 73.512194 102.21289 73.708984 C 102.40968 74.139216 102.8972 75.126765 103.19336 76.441406 C 103.67563 78.582194 103.9745 81.501577 103.97461 84.402344 A 7.4737 7.4737 0 0 0 103.97461 84.404297 C 103.97461 87.305571 103.67572 90.224066 103.19336 92.365234 C 102.8972 93.679877 102.40968 94.666857 102.21289 95.097656 C 101.78266 95.293878 100.79511 95.781964 99.480469 96.078125 C 97.339303 96.560483 94.41885 96.859375 91.517578 96.859375 C 88.616306 96.859375 85.697805 96.560483 83.556641 96.078125 C 82.241998 95.781965 81.25445 95.293879 80.824219 95.097656 C 80.627428 94.666857 80.139911 93.679877 79.84375 92.365234 C 79.361391 90.224068 79.0625 87.30557 79.0625 84.404297 A 7.4737 7.4737 0 0 0 79.0625 84.402344 C 79.062606 81.501579 79.361477 78.582192 79.84375 76.441406 C 80.139911 75.126765 80.627428 74.139216 80.824219 73.708984 C 81.25445 73.512194 82.241999 73.024676 83.556641 72.728516 C 85.697805 72.246157 88.616306 71.947266 91.517578 71.947266 z " />
</svg>
