<?xml version="1.0" encoding="UTF-8" standalone="no"?>
<!-- Created with Inkscape (http://www.inkscape.org/) -->

<svg
   width="46.879257mm"
   height="48.744972mm"
   viewBox="0 0 46.879257 48.744973"
   version="1.1"
   id="svg1"
   inkscape:version="1.4.2 (f4327f4, 2025-05-13)"
   sodipodi:docname="cirurgia-oral.svg"
   xmlns:inkscape="http://www.inkscape.org/namespaces/inkscape"
   xmlns:sodipodi="http://sodipodi.sourceforge.net/DTD/sodipodi-0.dtd"
   xmlns="http://www.w3.org/2000/svg"
   xmlns:svg="http://www.w3.org/2000/svg">
  <sodipodi:namedview
     id="namedview1"
     pagecolor="#505050"
     bordercolor="#ffffff"
     borderopacity="1"
     inkscape:showpageshadow="0"
     inkscape:pageopacity="0"
     inkscape:pagecheckerboard="1"
     inkscape:deskcolor="#505050"
     inkscape:document-units="mm"
     inkscape:zoom="1.4396184"
     inkscape:cx="-59.390738"
     inkscape:cy="90.301707"
     inkscape:window-width="1920"
     inkscape:window-height="1010"
     inkscape:window-x="-6"
     inkscape:window-y="-6"
     inkscape:window-maximized="1"
     inkscape:current-layer="layer1" />
  <defs
     id="defs1" />
  <g
     inkscape:label="Camada 1"
     inkscape:groupmode="layer"
     id="layer1"
     transform="translate(-197.90851,-93.133196)">
    <path
       id="path2-1"
       style="fill:#d70050;fill-opacity:1;stroke-width:2.64583;paint-order:stroke markers fill"
       d="m 198.7336,114.86999 c 1.1357,3.67813 2.46215,8.15319 3.96617,12.38839 l 3.53777,-2.83652 c -0.57952,-1.48648 -1.11092,-2.91803 -1.54409,-4.17494 -2.62594,-1.99635 -3.73998,-2.92553 -5.95985,-5.37693 z m 17.79737,11.67939 -0.27079,0.21549 c -2.2e-4,3.3e-4 -2.9e-4,7.1e-4 -5.2e-4,0.001 -3.159,4.63363 -3.20685,10.36349 -3.98063,10.40195 -0.3518,0.0175 -1.46786,-2.09549 -2.78846,-5.00022 l -3.58635,2.86184 c 7e-5,1.3e-4 -6e-5,3.9e-4 0,5.2e-4 2.00305,4.01033 4.23086,6.78537 6.66316,6.72259 5.64546,-0.0939 2.80468,-5.43167 7.38043,-12.83694 -1.37661,-1.0183 -1.77981,-1.37394 -3.41684,-2.36627 z" />
    <path
       id="path1-1-7-4"
       style="display:inline;fill:#d70050;fill-opacity:1;stroke-width:2.64583;paint-order:stroke markers fill"
       d="m 211.22948,93.139535 c -5.94322,-0.09025 -13.37844,5.039519 -13.32063,14.264245 0.0428,6.8239 6.69381,11.06879 12.23233,13.88856 l 3.71346,-2.97708 c -5.88992,-3.16735 -11.54919,-6.42531 -11.70212,-11.02982 -0.27523,-8.286463 6.49957,-9.399814 8.60567,-9.783897 5.44035,-0.300725 10.25571,6.837307 10.25571,6.837307 0,0 5.49321,-7.346563 10.2557,-6.837307 2.97759,0.503734 4.9693,1.63354 6.30039,2.962097 l 3.64887,-2.909387 c -2.83935,-3.218971 -6.86217,-4.448203 -9.59528,-4.414718 -5.66647,-0.193916 -10.37404,4.125847 -10.37404,4.125847 0,0 -4.07684,-4.035592 -10.02006,-4.125847 z m 33.08739,11.020515 c -0.99432,2.5812 -2.4546,5.03664 -4.18424,7.11171 -1.76809,2.12122 -3.81046,3.84516 -5.98258,4.85139 -0.97462,0.45148 -1.98724,0.75532 -3.00241,0.86919 -2.50184,1.29646 -5.11492,2.4395 -7.27087,3.69435 -1.8e-4,1.1e-4 -3.3e-4,4.1e-4 -5.2e-4,5.2e-4 l -0.82785,0.66094 c 1.31102,0.87127 1.77073,1.31357 3.2551,2.77451 6.49131,-3.57603 18.4457,-7.59861 18.28725,-17.07286 -0.0172,-1.02965 -0.11244,-1.99177 -0.27388,-2.88975 z m -0.76688,11.06651 c 0,0 -2.4465,3.1769 -5.91437,4.7904 -1.21725,4.53097 -6.03988,16.88581 -7.42694,16.85737 -1.38705,-0.0284 -0.0288,-5.62146 -4.47931,-10.49135 -1.01411,-1.34476 -2.52059,-2.57677 -4.29069,-3.75015 l -3.36104,2.682 c 3.34934,1.90667 5.34948,3.59259 6.84661,6.46731 1.87899,3.64673 0.60129,10.06772 5.1263,10.0924 3.85815,0.1914 7.37227,-7.22362 9.8795,-14.42237 2.50722,-7.19875 3.61994,-12.22561 3.61994,-12.22561 z" />
    <path
       style="baseline-shift:baseline;display:inline;overflow:visible;vector-effect:none;fill:#d70050;fill-opacity:1;stroke:none;enable-background:accumulate;stop-color:#000000"
       d="m 244.74901,96.017839 -19.61288,15.638991 c 1.04058,0.55407 1.87039,1.50993 2.34731,2.59832 a 5.0017327,5.0017327 0 0 1 0.36913,1.30063 c 7.42379,3.18708 17.64384,-9.8069 16.89644,-19.538126 z m -21.64624,16.858881 c -0.11702,0.003 -0.21964,0.0233 -0.41804,0.0692 -0.45514,0.1052 -0.7881,0.20422 -1.11017,0.46141 l -20.04846,16.07458 v 2.56362 l 21.52204,-17.06652 1.07278,1.35249 -22.59482,17.91156 v 3.00196 l 23.60689,-18.84001 c 1.23751,-0.9878 1.29307,-2.26407 0.7701,-3.45756 -0.5225,-1.19258 -1.68416,-2.09298 -2.79737,-2.07065 h -0.003 z"
       id="path11" />
  </g>
</svg>
