<svg xmlns="http://www.w3.org/2000/svg" width="24" height="24" viewBox="0 0 24 24" role="img" aria-label="Clínico Geral">
  <path fill="#d70050" d="M 7.1953125 0.8125 C 4.345881 0.77105878 0.78087518 3.1255868 0.80859375 7.3613281 C 0.82172282 9.3676121 2.1360539 10.890094 3.7753906 12.064453 C 3.8604758 11.906655 3.9653752 11.76231 4.0878906 11.632812 C 4.1490182 11.568201 4.2141627 11.507333 4.2832031 11.451172 C 4.4208002 11.339243 4.5728601 11.242728 4.7363281 11.169922 C 4.9822571 11.060389 5.2536094 11 5.5371094 11 L 5.9511719 11 C 4.2095891 9.9378268 2.8945037 8.7700835 2.84375 7.3066406 C 2.7117915 3.5017224 5.9589966 2.9908131 6.96875 2.8144531 C 9.5770879 2.6763671 11.886719 5.953125 11.886719 5.953125 C 11.886719 5.953125 14.521347 2.5806165 16.804688 2.8144531 C 20.846473 3.4693134 21.096342 6.428356 21.105469 7.2363281 C 20.903524 8.9260865 19.685108 10.076192 18.15625 11 L 18.212891 11 C 18.302809 11.000009 18.391512 11.007637 18.478516 11.019531 C 18.49685 11.022032 18.515019 11.024338 18.533203 11.027344 C 18.595629 11.03768 18.656348 11.052254 18.716797 11.068359 C 18.745617 11.076034 18.774414 11.082863 18.802734 11.091797 C 18.804706 11.092419 18.806624 11.093122 18.808594 11.09375 C 18.879282 11.116306 18.948437 11.141822 19.015625 11.171875 C 19.040477 11.182972 19.063565 11.196911 19.087891 11.208984 C 19.13354 11.231675 19.178995 11.25525 19.222656 11.28125 C 19.251924 11.298672 19.280284 11.317093 19.308594 11.335938 C 19.372769 11.37863 19.43532 11.42309 19.494141 11.472656 C 19.497307 11.475322 19.500756 11.477784 19.503906 11.480469 C 19.512694 11.487967 19.520638 11.496262 19.529297 11.503906 C 19.578156 11.547041 19.623445 11.593043 19.667969 11.640625 C 19.687932 11.661936 19.707523 11.682927 19.726562 11.705078 C 19.771745 11.757689 19.815809 11.812112 19.855469 11.869141 C 19.859692 11.875214 19.864983 11.880598 19.869141 11.886719 C 19.869656 11.887478 19.870579 11.887912 19.871094 11.888672 C 19.878591 11.899739 19.883344 11.912609 19.890625 11.923828 C 19.925038 11.976851 19.956945 12.031679 19.986328 12.087891 C 19.993623 12.101856 20.002795 12.114756 20.009766 12.128906 C 21.818643 10.918817 23.227386 9.3714555 23.189453 7.1992188 C 23.105473 2.3901474 19.169864 0.78671754 16.972656 0.8125 C 14.255908 0.723458 12 2.7070312 12 2.7070312 C 12 2.7070312 10.044744 0.85394123 7.1953125 0.8125 z M 22.691406 10.953125 C 22.691406 10.953125 21.683981 12.207234 20.212891 12.980469 C 20.212956 12.987007 20.212891 12.993449 20.212891 13 C 20.212887 13.080479 20.206824 13.160103 20.197266 13.238281 C 20.19703 13.240202 20.197507 13.242221 20.197266 13.244141 C 20.196438 13.250746 20.194253 13.257085 20.193359 13.263672 C 20.184547 13.328637 20.171297 13.392125 20.15625 13.455078 C 20.151232 13.476054 20.14631 13.496851 20.140625 13.517578 C 20.125875 13.571377 20.10894 13.623804 20.089844 13.675781 C 20.084083 13.691476 20.07841 13.70714 20.072266 13.722656 C 20.053801 13.769246 20.033533 13.814506 20.011719 13.859375 C 19.997451 13.888748 19.984396 13.918687 19.96875 13.947266 C 19.967354 13.949814 19.966251 13.952537 19.964844 13.955078 C 19.932958 14.01268 19.898546 14.068986 19.861328 14.123047 C 19.821389 14.18106 19.778055 14.237526 19.732422 14.291016 C 19.717452 14.308562 19.701098 14.324771 19.685547 14.341797 C 19.654687 14.375585 19.622891 14.407808 19.589844 14.439453 C 19.564173 14.464044 19.538643 14.488489 19.511719 14.511719 C 19.480898 14.5383 19.448393 14.563178 19.416016 14.587891 C 19.402011 14.59858 19.389285 14.610765 19.375 14.621094 C 18.472069 17.141194 16.83668 20.90517 16.294922 20.894531 C 15.634211 20.881558 16.27178 18.34494 14.1875 16.119141 L 13.921875 17.050781 C 13.90055 17.125109 13.872881 17.196136 13.84375 17.265625 C 13.834909 17.286693 13.82592 17.307517 13.816406 17.328125 C 13.78432 17.397634 13.750178 17.465183 13.710938 17.529297 C 13.708989 17.532486 13.707043 17.535887 13.705078 17.539062 C 13.702129 17.543818 13.698299 17.548009 13.695312 17.552734 C 13.666678 17.598045 13.635409 17.641167 13.603516 17.683594 C 13.568006 17.730883 13.529428 17.774774 13.490234 17.818359 C 13.467041 17.844166 13.444292 17.870058 13.419922 17.894531 C 13.406277 17.908223 13.394855 17.924232 13.380859 17.9375 C 13.515853 18.130266 13.64202 18.334566 13.761719 18.554688 C 14.662587 20.229166 14.049271 23.178119 16.21875 23.189453 C 18.068513 23.277333 19.753008 19.871876 20.955078 16.566406 C 22.157148 13.260938 22.691406 10.953125 22.691406 10.953125 z M 15.271484 12.464844 L 15.269531 12.466797 L 15.498047 13 L 15.5 13 L 15.271484 12.464844 z M 14.585938 14.726562 L 14.509766 14.992188 C 14.608446 14.940789 14.709119 14.889802 14.8125 14.837891 C 14.809837 14.836715 14.807345 14.835169 14.804688 14.833984 C 14.730414 14.80091 14.657732 14.764439 14.585938 14.726562 z" />
  <path fill="#d70050" d="M 1.2050781 10.789062 C 2.7384755 15.545216 4.9980974 23.203012 7.8378906 23.132812 C 10.299906 23.093577 9.3939009 21.062704 10.861328 18.136719 C 10.571271 17.93787 10.326773 17.660516 10.171875 17.3125 L 9.6660156 16.171875 C 8.0940988 18.312956 8.0748721 21.011426 7.6992188 21.029297 C 7.3821183 21.044381 5.769467 17.600057 4.6445312 14.785156 C 3.9913516 14.453522 3.5371094 13.77349 3.5371094 13 C 3.5371094 12.958353 3.5384197 12.916068 3.5410156 12.875 C 2.6310969 12.197686 2.1100602 11.746175 1.2050781 10.789062 z" />
  <path fill="#d70050" d="M 13.9375,8.5019531 A 1.0001,1.0001 0 0 0 13.039063,9.2246094 L 11.794922,13.576172 10.914063,11.59375 A 1.0001,1.0001 0 0 0 9.1054688,11.552734 L 8.8828125,12 H 5.5371094 a 1,1 0 0 0 -1,1 1,1 0 0 0 1,1 H 9.5 a 1.0001,1.0001 0 0 0 0.2304688,-0.142578 l 1.3554692,3.048828 a 1.0001,1.0001 0 0 0 1.875,-0.130859 l 1.226562,-4.294922 0.392578,0.914062 A 1.0001,1.0001 0 0 0 15.5,14 h 2.712891 a 1,1 0 0 0 1,-1 1,1 0 0 0 -1,-1 H 16.160156 L 14.919922,9.1054688 A 1.0001,1.0001 0 0 0 13.9375,8.5019531 Z" />
</svg>
