<?xml version="1.0" encoding="UTF-8" standalone="no"?>
<!-- Created with Inkscape (http://www.inkscape.org/) -->

<svg
   width="37.041664mm"
   height="37.041664mm"
   viewBox="0 0 37.041664 37.041664"
   version="1.1"
   id="svg1"
   inkscape:version="1.4.2 (f4327f4, 2025-05-13)"
   sodipodi:docname="emergencia.svg"
   xmlns:inkscape="http://www.inkscape.org/namespaces/inkscape"
   xmlns:sodipodi="http://sodipodi.sourceforge.net/DTD/sodipodi-0.dtd"
   xmlns="http://www.w3.org/2000/svg"
   xmlns:svg="http://www.w3.org/2000/svg">
  <sodipodi:namedview
     id="namedview1"
     pagecolor="#505050"
     bordercolor="#ffffff"
     borderopacity="1"
     inkscape:showpageshadow="0"
     inkscape:pageopacity="0"
     inkscape:pagecheckerboard="1"
     inkscape:deskcolor="#505050"
     inkscape:document-units="mm"
     inkscape:zoom="1.4396184"
     inkscape:cx="-48.971311"
     inkscape:cy="161.84844"
     inkscape:window-width="1920"
     inkscape:window-height="1010"
     inkscape:window-x="-6"
     inkscape:window-y="-6"
     inkscape:window-maximized="1"
     inkscape:current-layer="layer1" />
  <defs
     id="defs1" />
  <g
     inkscape:label="Camada 1"
     inkscape:groupmode="layer"
     id="layer1"
     transform="translate(-125.67708,-175.68333)">
    <path
       id="path116"
       style="fill:#ffffff;fill-opacity:1;stroke-width:2.0545;paint-order:stroke markers fill"
       d="M 136.24698 175.68798 C 131.53129 175.61938 125.63173 179.51765 125.6776 186.52763 C 125.7235 193.5376 135.35158 196.96583 139.42715 198.97907 C 140.32539 199.42278 141.12834 199.83278 141.85077 200.2317 L 141.74483 196.59472 C 136.12599 193.56673 129.19599 190.79627 129.04483 186.43771 C 128.82644 180.14073 134.20174 179.29438 135.87284 179.00251 C 140.18953 178.77398 144.01033 184.19857 144.01033 184.19857 C 144.01033 184.19857 148.36899 178.61552 152.14782 179.00251 C 158.83681 180.08627 159.25268 184.9848 159.26779 186.32196 C 158.5806 192.07197 150.77257 194.03967 146.03759 196.76008 L 146.02106 197.38278 C 146.78113 197.8939 147.19246 198.27603 148.20749 199.2328 C 153.35806 196.51534 162.84344 193.4585 162.71771 186.25891 C 162.57873 178.3001 156.06471 175.64531 152.42842 175.68798 C 147.93232 175.54062 144.1974 178.82371 144.1974 178.82371 C 144.1974 178.82371 140.96267 175.75656 136.24698 175.68798 z M 161.89192 192.47249 C 161.89192 192.47249 159.95028 194.88645 157.19867 196.11257 C 156.23284 199.55571 152.40658 208.94425 151.30601 208.92264 C 150.20544 208.90104 151.28296 204.65069 147.7517 200.95 C 147.28046 200.35153 146.67527 199.78278 145.97248 199.23486 L 145.93372 200.71953 L 144.39893 200.71953 C 144.59635 200.75858 144.80155 200.76435 144.98495 200.84665 C 145.31522 200.98668 145.62095 201.19294 145.86965 201.45385 C 146.12069 201.70852 146.31604 202.01498 146.45152 202.34475 C 146.6053 202.68857 146.68975 203.06439 146.68975 203.44029 C 146.68975 203.68899 146.65343 203.93863 146.58433 204.17875 C 146.76981 204.45413 146.9453 204.74475 147.11298 205.05311 C 148.60388 207.82431 147.59003 212.70365 151.18043 212.72241 C 154.24171 212.86785 157.03037 207.23277 159.01975 201.76236 C 161.00912 196.29195 161.89192 192.47249 161.89192 192.47249 z M 143.78037 197.74917 L 143.80879 198.71862 L 143.98449 198.71862 L 144.00619 197.88714 C 143.93141 197.84109 143.85618 197.795 143.78037 197.74917 z M 142.70033 200.71849 C 142.75269 200.74979 142.80446 200.78126 142.85588 200.81255 C 143.01809 200.76001 143.19202 200.75137 143.36127 200.71849 L 142.70033 200.71849 z " />
    <path
       id="path117"
       style="fill:#ffffff;fill-opacity:1;stroke-width:2.0545;paint-order:stroke markers fill"
       d="M 126.33182 192.2017 C 128.86953 200.07293 132.60867 212.74609 137.30841 212.62991 C 141.08681 212.5697 140.07412 209.67409 141.84354 205.39211 C 141.61011 205.14985 141.41951 204.86722 141.27923 204.56115 L 141.27148 204.54358 L 141.26528 204.52756 C 141.12224 204.18418 141.05082 203.81128 141.05082 203.43978 C 141.05082 203.06828 141.12221 202.69742 141.26528 202.35405 L 141.26941 202.34423 L 141.27354 202.3339 C 141.36054 202.13618 141.46774 201.9476 141.59445 201.77321 C 141.27647 201.56532 140.90889 201.34013 140.38626 201.03785 C 137.73273 204.59229 137.70532 209.11609 137.07948 209.14589 C 136.45364 209.17567 132.78054 201.06647 131.06073 196.28724 C 128.97715 194.77019 128.0932 194.06454 126.33182 192.2017 z " />
    <path
       style="font-size:28.2222px;font-family:Consolas;-inkscape-font-specification:Consolas;letter-spacing:0px;baseline-shift:baseline;display:inline;overflow:visible;vector-effect:none;fill:#ffffff;paint-order:stroke markers fill;enable-background:accumulate;stop-color:#000000"
       d="m 145.33067,185.52571 -0.37207,14.19378 h -2.12218 l -0.41341,-14.19378 z m -1.44694,16.08169 q 0.37207,0 0.7028,0.15159 0.33072,0.1378 0.56499,0.38585 0.24805,0.24805 0.38585,0.59255 0.15159,0.33073 0.15159,0.7028 0,0.37207 -0.15159,0.7028 -0.1378,0.33073 -0.38585,0.57878 -0.23427,0.23426 -0.56499,0.37207 -0.33073,0.15158 -0.7028,0.15158 -0.38585,0 -0.71658,-0.15158 -0.33073,-0.13781 -0.57878,-0.37207 -0.24804,-0.24805 -0.39963,-0.57878 -0.1378,-0.33073 -0.1378,-0.7028 0,-0.37207 0.1378,-0.7028 0.15159,-0.3445 0.39963,-0.59255 0.24805,-0.24805 0.57878,-0.38585 0.33073,-0.15159 0.71658,-0.15159 z"
       id="path3" />
  </g>
</svg>
