<svg xmlns="http://www.w3.org/2000/svg" width="64" height="64" role="img" aria-label="Limpeza dental" viewBox="0 0 900 900" version="1.1">
	<path d="M 140.500 164.776 C 136.119 165.178, 123.758 169.090, 121.921 170.655 C 121.053 171.395, 120.014 172, 119.613 172 C 118.079 172, 108.178 180.697, 104.915 184.911 C 99.860 191.439, 97.530 195.904, 94.452 204.961 L 91.685 213.105 92.338 234.303 C 92.697 245.961, 93.439 258.200, 93.986 261.500 C 94.533 264.800, 95.439 276.725, 96 288 C 96.561 299.275, 97.663 315.250, 98.450 323.500 C 99.236 331.750, 100.127 343.991, 100.429 350.702 C 100.731 357.423, 101.618 364.611, 102.404 366.702 C 103.188 368.791, 104.128 371.850, 104.493 373.500 C 104.857 375.150, 105.884 377.308, 106.774 378.295 C 108.216 379.896, 108.248 380.871, 107.069 387.295 C 104.992 398.613, 104.145 414.347, 104.070 443.056 L 104 469.611 106.534 473.046 C 107.928 474.935, 109.840 476.845, 110.784 477.289 C 111.728 477.733, 114.300 479.191, 116.500 480.528 C 118.700 481.866, 121.625 483.470, 123 484.094 C 124.375 484.717, 127.349 486.076, 129.610 487.114 C 131.870 488.151, 134.217 489, 134.826 489 C 135.434 489, 137.410 489.640, 139.216 490.423 C 142.902 492.020, 152.335 494.832, 165 498.110 C 172.804 500.130, 175.999 500.318, 204 500.405 C 232.615 500.494, 235.056 500.359, 243.500 498.222 C 248.450 496.969, 253.975 495.204, 255.778 494.300 C 260.891 491.734, 261.344 492.995, 260.031 506.133 C 259.407 512.385, 258.474 519.300, 257.958 521.500 C 257.442 523.700, 256.489 541.029, 255.840 560.010 C 254.523 598.555, 254.530 598.613, 261 602.013 C 267.985 605.685, 275.917 609, 277.716 609 C 278.727 609, 280.461 609.635, 281.569 610.411 C 282.677 611.187, 286.154 612.297, 289.295 612.878 C 292.437 613.458, 295.793 614.353, 296.754 614.866 C 297.714 615.378, 301.200 616.106, 304.500 616.483 C 307.800 616.860, 312.975 617.805, 316 618.582 C 329.479 622.047, 358.734 623.724, 376.489 622.050 C 396.942 620.122, 404.195 619.235, 408.500 618.136 C 410.700 617.574, 414.750 616.676, 417.500 616.141 C 424.563 614.767, 435.749 611.442, 437.241 610.274 C 437.933 609.732, 439.530 609.036, 440.790 608.728 C 442.631 608.276, 443.537 608.890, 445.411 611.860 C 446.694 613.891, 448.055 616.972, 448.436 618.707 C 448.817 620.442, 449.775 622.398, 450.564 623.053 C 451.354 623.709, 452 624.893, 452 625.684 C 452 626.476, 453.175 629.683, 454.612 632.812 C 456.048 635.940, 458.095 640.525, 459.161 643 C 460.226 645.475, 461.751 648.774, 462.549 650.331 C 463.347 651.888, 464 653.639, 464 654.222 C 464 654.804, 464.949 657.355, 466.109 659.890 C 467.268 662.426, 469.003 666.300, 469.963 668.500 C 470.923 670.700, 472.609 674.525, 473.710 677 C 474.810 679.475, 476.748 683.975, 478.016 687 C 479.284 690.025, 481.172 694.525, 482.211 697 C 483.250 699.475, 484.979 703.300, 486.053 705.500 C 487.127 707.700, 488.004 709.865, 488.003 710.312 C 488.001 710.758, 489.125 713.571, 490.500 716.562 C 491.875 719.553, 494.094 724.383, 495.432 727.295 C 499.330 735.779, 505.215 737.180, 509.499 730.642 C 510.976 728.387, 510.969 727.768, 509.402 722.846 C 508.467 719.906, 507.094 716.790, 506.351 715.921 C 505.608 715.053, 505 713.788, 505 713.109 C 505 712.431, 503.836 709.317, 502.413 706.188 C 500.990 703.060, 499.256 699.150, 498.558 697.500 C 497.860 695.850, 496.343 692.475, 495.187 690 C 494.030 687.525, 492.796 684.281, 492.444 682.791 C 492.092 681.301, 491.173 679.558, 490.402 678.919 C 489.631 678.279, 489 677.072, 489 676.237 C 489 674.810, 487.376 670.886, 482.901 661.500 C 481.853 659.300, 480.996 657.135, 480.997 656.688 C 481 655.838, 476.810 646.296, 474.548 642 C 473.823 640.625, 472.925 638.069, 472.551 636.319 C 472.177 634.570, 471.272 632.641, 470.540 632.033 C 469.808 631.426, 468.925 629.415, 468.578 627.565 C 468.231 625.715, 467.284 623.651, 466.474 622.978 C 465.663 622.305, 465 621.107, 465 620.316 C 465 618.879, 461.214 609.990, 458.356 604.717 C 457.209 602.599, 457.015 600.375, 457.546 595.413 C 458.172 589.573, 458.460 588.925, 460.311 589.196 C 462.162 589.468, 464.947 593.295, 467.848 599.551 C 468.371 600.679, 470.305 603.829, 472.145 606.551 C 473.984 609.273, 476.167 612.726, 476.995 614.224 C 478.390 616.749, 483.475 625.291, 488.699 633.883 C 489.908 635.872, 491.370 638.625, 491.949 640 C 492.528 641.375, 493.491 643.347, 494.091 644.382 C 494.691 645.417, 495.769 648.342, 496.487 650.882 C 497.205 653.422, 498.992 658.650, 500.458 662.500 C 501.925 666.350, 503.555 671.217, 504.082 673.315 C 504.609 675.414, 505.661 678.114, 506.422 679.315 C 507.182 680.517, 508.132 683.068, 508.533 684.985 C 508.934 686.902, 509.834 689.377, 510.533 690.485 C 511.232 691.593, 512.125 694.075, 512.517 696 C 512.910 697.925, 513.641 700.011, 514.142 700.634 C 514.643 701.258, 515.669 703.958, 516.423 706.634 C 517.176 709.311, 518.989 714.650, 520.451 718.500 C 521.913 722.350, 523.555 726.962, 524.101 728.748 C 525.288 732.634, 529.797 735.340, 533.526 734.404 C 537.055 733.518, 539.484 728.632, 538.126 725.147 C 536.351 720.589, 536.349 717.579, 538.121 717.226 C 539.081 717.035, 539.960 717.738, 540.277 718.952 C 540.707 720.595, 541.622 721, 544.906 721 C 551.656 721, 554.908 715.915, 551.735 710.323 C 550.357 707.895, 543.584 696.515, 540.500 691.447 C 539.400 689.639, 536.700 685.155, 534.500 681.482 C 532.300 677.809, 529.600 673.309, 528.500 671.482 C 527.400 669.655, 524.700 665.155, 522.500 661.482 C 520.300 657.809, 517.600 653.309, 516.500 651.482 C 515.400 649.655, 512.776 645.203, 510.669 641.589 C 508.562 637.975, 506.424 634.762, 505.919 634.450 C 505.414 634.138, 505 632.889, 505 631.676 C 505 630.463, 504.100 627.791, 503 625.739 C 501.900 623.686, 501 621.316, 501 620.472 C 501 619.627, 500.251 617.263, 499.335 615.218 C 498.419 613.173, 497.117 609.700, 496.442 607.500 C 495.767 605.300, 494.013 600.350, 492.545 596.500 C 491.077 592.650, 489.428 587.700, 488.882 585.500 C 488.335 583.300, 487.238 580.503, 486.444 579.285 C 485.650 578.067, 485 576.260, 485 575.270 C 485 574.280, 484.100 571.791, 483 569.739 C 481.900 567.686, 481 565.248, 481 564.319 C 481 563.391, 480.132 560.802, 479.071 558.566 C 478.011 556.330, 476.648 552.606, 476.044 550.292 C 475.440 547.978, 474.534 545.830, 474.031 545.519 C 473.527 545.208, 472.816 542.953, 472.449 540.509 C 472.082 538.064, 471.156 535.545, 470.391 534.910 C 469.626 534.275, 469 532.513, 469 530.994 C 469 529.074, 468.391 528.074, 467 527.710 C 464.888 527.158, 464.200 525, 466.135 525 C 468.095 525, 472 529.995, 472 532.502 C 472 533.821, 472.665 535.273, 473.479 535.728 C 474.669 536.394, 482.457 550.900, 491.802 569.859 C 492.518 571.311, 493.499 573.175, 493.981 574 C 494.949 575.654, 505.734 596.591, 507.802 600.831 C 508.518 602.299, 509.509 604.175, 510.004 605 C 510.914 606.518, 521.403 626.914, 523.802 631.831 C 524.518 633.299, 525.513 635.175, 526.013 636 C 526.916 637.491, 533.315 649.820, 535.802 654.861 C 536.518 656.312, 537.505 658.175, 537.995 659 C 538.845 660.429, 545.037 672.359, 547.802 677.894 C 548.518 679.327, 549.499 681.175, 549.981 682 C 550.464 682.825, 553.398 688.450, 556.501 694.500 C 575.968 732.452, 576.671 733.628, 580.473 734.583 C 582.839 735.177, 586.885 733.622, 588.235 731.600 C 589.741 729.344, 588.906 725.139, 585.750 719.089 C 583.962 715.662, 581.914 711.653, 581.198 710.179 C 580.482 708.706, 579.507 706.825, 579.032 706 C 578.557 705.175, 574.721 697.750, 570.508 689.500 C 566.296 681.250, 562.433 673.825, 561.924 673 C 561.415 672.175, 560.538 670.375, 559.976 669 C 559.413 667.625, 557.860 664.700, 556.524 662.500 C 555.188 660.300, 553.824 657.825, 553.493 657 C 553.161 656.175, 552.288 654.375, 551.552 653 C 550.816 651.625, 547.674 645.550, 544.570 639.500 C 541.466 633.450, 538.493 627.825, 537.963 627 C 537.433 626.175, 536.529 624.375, 535.955 623 C 535.380 621.625, 532.062 615.100, 528.582 608.500 C 525.101 601.900, 519.714 591.550, 516.612 585.500 C 513.509 579.450, 510.527 573.825, 509.985 573 C 509.443 572.175, 508.550 570.375, 508.002 569 C 507.453 567.625, 506.553 565.825, 506.002 565 C 505.450 564.175, 504.538 562.375, 503.976 561 C 503.413 559.625, 501.861 556.700, 500.528 554.500 C 499.194 552.300, 497.630 549.375, 497.052 548 C 496.474 546.625, 495.577 544.825, 495.058 544 C 493.114 540.907, 488 530.085, 488 529.063 C 488 528.478, 487.580 528, 487.067 528 C 486.554 528, 485.824 526.987, 485.445 525.750 C 483.626 519.813, 478.567 513.908, 472.781 510.968 C 469.569 509.336, 466.202 508, 465.299 508 C 464.396 508, 462.947 507.363, 462.079 506.585 C 461.210 505.807, 458.940 504.770, 457.033 504.280 C 454.048 503.514, 453.454 502.848, 452.756 499.488 C 452.310 497.341, 452.168 495.004, 452.441 494.293 C 453.053 492.699, 456.202 492.602, 457.730 494.130 C 459.288 495.688, 468.202 498.867, 475.957 500.631 C 479.509 501.438, 482.884 502.488, 483.457 502.963 C 484.031 503.438, 488.016 504.315, 492.313 504.912 C 496.611 505.509, 500.904 506.414, 501.854 506.922 C 502.804 507.430, 508.513 508.318, 514.541 508.895 C 520.568 509.471, 527.072 510.406, 528.993 510.971 C 534.099 512.475, 561.131 512.222, 571 510.578 C 575.675 509.799, 583.237 508.868, 587.804 508.508 C 592.370 508.148, 597.644 507.211, 599.521 506.427 C 601.399 505.642, 604.554 505, 606.532 505 C 608.511 505, 612.238 504.137, 614.815 503.083 C 617.392 502.028, 620.653 500.916, 622.062 500.611 C 624.543 500.074, 632.449 496.545, 638.411 493.314 C 641.531 491.623, 645.005 492.097, 653.500 495.371 C 655.700 496.219, 658.850 496.932, 660.500 496.956 C 662.151 496.980, 666.651 497.667, 670.500 498.483 C 686.251 501.819, 730.159 499.508, 745.909 494.514 C 748.434 493.713, 752.750 492.344, 755.500 491.472 C 758.250 490.601, 762.037 489.493, 763.917 489.011 C 765.796 488.530, 768.721 487.481, 770.417 486.680 C 783.120 480.684, 790.988 476.430, 793.868 473.999 L 797.237 471.157 798.213 457.828 C 799.158 444.942, 798.355 419.481, 796.051 389.229 C 795.191 377.941, 795.705 373.725, 798.938 365.547 C 799.580 363.923, 800.518 354.698, 801.023 345.047 C 801.527 335.396, 802.387 323.450, 802.933 318.500 C 803.479 313.550, 804.396 300.050, 804.971 288.500 C 805.546 276.950, 806.466 264.800, 807.016 261.500 C 807.566 258.200, 808.291 245.825, 808.626 234 C 809.157 215.317, 809.017 211.910, 807.557 208 C 806.634 205.525, 805.410 201.925, 804.839 200 C 804.268 198.075, 803.239 195.825, 802.553 195 C 801.866 194.175, 801.007 192.666, 800.644 191.647 C 798.991 187.006, 784.282 172, 781.387 172 C 780.986 172, 779.947 171.395, 779.079 170.655 C 778.210 169.915, 774.350 168.330, 770.500 167.132 L 763.500 164.954 453.500 164.727 C 283 164.602, 142.150 164.624, 140.500 164.776 M 136 180.886 C 127.218 182.426, 116.374 191.504, 111.816 201.134 C 106.896 211.525, 104.824 225.131, 106.962 233 C 107.485 234.925, 108.389 247.300, 108.970 260.500 C 109.551 273.700, 110.438 286.525, 110.940 289 C 111.442 291.475, 112.169 303.175, 112.554 315 C 112.939 326.825, 113.578 337.108, 113.973 337.851 C 114.823 339.447, 120 331.248, 120 328.307 C 120 327.297, 120.831 324.902, 121.847 322.985 C 122.862 321.068, 124.022 318.150, 124.424 316.500 C 124.827 314.850, 125.743 312.825, 126.460 312 C 127.177 311.175, 128.088 309.437, 128.485 308.137 C 129.252 305.625, 138.142 292.195, 143.222 285.874 C 147.104 281.043, 156.162 273.989, 162.146 271.137 C 168.285 268.211, 177.660 266.524, 187.500 266.575 C 203.410 266.658, 212.207 270.341, 223.731 281.745 C 230.660 288.601, 232.929 291.475, 237.752 299.500 C 241.194 305.229, 249 322.169, 249 323.911 C 249 324.615, 249.659 326.386, 250.464 327.846 C 251.872 330.399, 253.977 337.519, 256.128 347 C 256.689 349.475, 257.764 353.975, 258.515 357 C 259.267 360.025, 260.248 364.525, 260.695 367 C 261.143 369.475, 261.957 371.500, 262.504 371.500 C 263.052 371.500, 263.985 368.545, 264.578 364.933 C 265.170 361.322, 265.994 357.819, 266.408 357.149 C 266.822 356.479, 267.569 353.049, 268.068 349.526 C 268.567 346.003, 269.604 341.631, 270.372 339.810 C 271.141 337.990, 272.237 334.700, 272.807 332.500 C 274.435 326.225, 277.026 318.749, 278.580 315.846 C 279.361 314.386, 280 312.647, 280 311.981 C 280 310.891, 287.993 294.248, 291.517 288 C 293.481 284.517, 295.665 281.427, 302.716 272.153 C 305.406 268.614, 311.397 262.664, 317.258 257.711 C 322.200 253.534, 325.126 251.665, 331 248.936 C 332.375 248.297, 334.850 247.058, 336.500 246.183 C 340.239 244.200, 360.238 243.326, 367.500 244.830 C 374.236 246.224, 382.147 249.002, 384.079 250.652 C 384.947 251.393, 386.048 252, 386.525 252 C 390.412 252, 408.834 269.451, 415.556 279.500 C 421.827 288.877, 429 301.597, 429 303.343 C 429 304.120, 429.646 305.291, 430.436 305.947 C 431.225 306.602, 432.177 308.570, 432.551 310.319 C 432.925 312.069, 433.818 314.625, 434.536 316 C 436.305 319.390, 438.903 327.319, 440.456 334.071 C 441.161 337.135, 442.203 340.510, 442.770 341.571 C 443.338 342.632, 444.133 345.750, 444.538 348.500 C 444.942 351.250, 445.707 354.625, 446.239 356 C 446.770 357.375, 447.721 362.004, 448.353 366.287 C 450.199 378.819, 450.835 377.878, 455.983 355 C 458.327 344.579, 459.805 338.871, 461.678 333 C 462.468 330.525, 463.553 326.754, 464.091 324.620 C 464.629 322.486, 465.728 319.799, 466.534 318.648 C 467.340 317.497, 468 315.897, 468 315.093 C 468 313.606, 469.872 309.251, 475.133 298.500 C 478.514 291.590, 478.745 291.195, 485.639 280.500 C 492.597 269.707, 507.368 254.911, 514.032 252.060 C 515.389 251.480, 517.175 250.590, 518 250.082 C 525.605 245.403, 528.572 244.650, 541 244.240 C 547.875 244.013, 555.300 244.290, 557.500 244.857 C 564.404 246.634, 571.438 249.250, 573.079 250.652 C 573.947 251.393, 575.155 252, 575.763 252 C 577.739 252, 591.353 263.494, 597.178 270.080 C 605.756 279.780, 617 297.585, 617 301.470 C 617 302.177, 617.646 303.291, 618.436 303.947 C 619.225 304.602, 620.177 306.570, 620.551 308.319 C 620.925 310.069, 621.631 311.998, 622.120 312.608 C 623.155 313.897, 626.690 323.710, 628.205 329.500 C 628.781 331.700, 629.882 335.075, 630.651 337 C 631.420 338.925, 632.465 343.094, 632.974 346.264 C 633.483 349.435, 634.244 352.585, 634.665 353.264 C 635.085 353.944, 635.895 358.064, 636.465 362.420 C 637.034 366.776, 637.994 370.503, 638.599 370.703 C 639.908 371.135, 644 359.226, 644 354.983 C 644 353.347, 644.861 349.419, 645.914 346.254 C 646.966 343.089, 648.128 338.723, 648.496 336.551 C 648.864 334.379, 649.803 331.692, 650.583 330.579 C 651.362 329.466, 652 327.636, 652 326.513 C 652 325.389, 652.900 322.791, 654 320.739 C 655.100 318.686, 656 316.537, 656 315.962 C 656 314.671, 661.232 303.908, 664.488 298.500 C 665.813 296.300, 667.336 293.550, 667.871 292.388 C 669.234 289.433, 686.497 272, 688.060 272 C 688.765 272, 690.053 271.393, 690.921 270.652 C 693.270 268.646, 701.681 265.950, 708.652 264.968 C 718.185 263.625, 737.968 266.959, 742.079 270.601 C 742.947 271.371, 744.146 272, 744.744 272 C 747.879 272, 760.768 285.363, 767.495 295.588 C 772.900 303.803, 781 320.192, 781 322.911 C 781 323.615, 781.672 325.386, 782.493 326.846 C 783.314 328.306, 784.471 330.850, 785.063 332.500 C 786.964 337.793, 787.720 333.456, 788.464 313 C 788.854 302.275, 789.578 291.475, 790.074 289 C 790.570 286.525, 791.422 274.375, 791.969 262 C 792.515 249.625, 793.503 235.590, 794.164 230.811 C 795.216 223.201, 795.144 221.153, 793.580 214.311 C 791.807 206.555, 788.876 199.372, 786 195.738 C 782.174 190.902, 776.813 186.051, 772.366 183.400 L 767.500 180.500 453.500 180.386 C 280.800 180.324, 137.925 180.549, 136 180.886 M 257.681 194.800 C 255.613 197.085, 253.353 203.461, 252.430 209.617 C 252.036 212.248, 250.679 216.738, 249.416 219.594 C 247.164 224.687, 240.777 232, 238.582 232 C 237.971 232, 235.902 232.833, 233.985 233.851 C 232.068 234.869, 228.025 236.024, 225 236.417 C 219.128 237.180, 211.068 240.293, 209.800 242.289 C 207.315 246.200, 211.120 253, 215.794 253 C 216.985 253, 219.656 253.639, 221.730 254.420 C 223.803 255.202, 227.275 256.139, 229.445 256.502 C 234.417 257.336, 241.852 261.084, 244.619 264.151 C 247.844 267.726, 251.995 276.777, 252.041 280.332 C 252.063 282.074, 253.114 286.425, 254.375 290 C 257.160 297.893, 259.979 300.080, 264.794 298.086 C 267.393 297.009, 268.170 295.799, 269.881 290.157 C 270.992 286.496, 272.204 281.598, 272.574 279.274 C 273.383 274.203, 276.773 267.227, 279.995 264.005 C 283.212 260.788, 289.716 257.461, 294.508 256.579 C 296.704 256.176, 300.525 255.237, 303 254.494 C 305.475 253.750, 308.630 252.904, 310.010 252.612 C 313.631 251.848, 316.359 246.882, 314.907 243.696 C 313.594 240.813, 306.475 237.364, 300 236.473 C 293.353 235.559, 284.952 232.023, 281.184 228.553 C 277.693 225.339, 273 217.048, 273 214.094 C 273 211.466, 268.189 195.933, 266.891 194.369 C 265.259 192.403, 259.611 192.667, 257.681 194.800 M 261 230.085 C 261 230.682, 257.356 234.737, 252.903 239.095 L 244.805 247.021 248.153 248.438 C 251.133 249.700, 255.249 253.752, 260.743 260.834 L 262.554 263.168 265.821 258.127 C 267.700 255.226, 271.191 251.723, 274.043 249.875 C 276.770 248.108, 278.963 246.401, 278.917 246.082 C 278.871 245.762, 276.059 243.234, 272.667 240.464 C 269.275 237.694, 265.856 233.982, 265.070 232.214 C 263.715 229.170, 261 227.750, 261 230.085 M 343.717 259.565 C 327.131 265.364, 310.651 281.832, 300.569 302.682 C 299.723 304.432, 298.573 306.146, 298.015 306.491 C 297.457 306.836, 297 307.886, 297 308.824 C 297 309.762, 296.100 312.209, 295 314.261 C 293.900 316.314, 293 318.564, 293 319.261 C 293 319.959, 292.166 322.098, 291.147 324.015 C 290.127 325.932, 288.962 329.300, 288.557 331.500 C 288.152 333.700, 287.373 336.042, 286.826 336.705 C 285.793 337.955, 283.954 345.122, 281.363 358 C 280.533 362.125, 279.228 367.750, 278.464 370.500 C 277.700 373.250, 276.789 378.875, 276.441 383 C 276.092 387.125, 275.175 392.719, 274.403 395.432 C 273.631 398.144, 272.995 403.544, 272.988 407.432 C 272.976 414.756, 270.539 440.282, 269.717 441.696 C 269.461 442.138, 269.606 443.400, 270.040 444.500 C 270.726 446.237, 270.926 446.061, 271.557 443.164 C 271.957 441.329, 272.891 439.596, 273.631 439.311 C 274.372 439.027, 275.465 436.928, 276.059 434.647 C 277.307 429.861, 281.167 419.827, 283.433 415.482 C 284.288 413.842, 284.990 411.993, 284.994 411.372 C 284.997 410.752, 285.675 409.685, 286.500 409 C 287.325 408.315, 288 407.061, 288 406.213 C 288 403.149, 301.676 384.309, 309.993 375.915 C 317.985 367.850, 328.276 360, 330.857 360 C 331.490 360, 333.686 359.100, 335.739 358 C 337.791 356.900, 340.605 356, 341.992 356 C 343.379 356, 345.995 355.575, 347.806 355.056 C 351.720 353.933, 371.053 356.198, 376.187 358.381 C 389.915 364.216, 399.825 371.265, 408.249 381.187 C 414.346 388.369, 423.828 402.468, 424.583 405.476 C 424.920 406.819, 425.827 408.442, 426.598 409.081 C 427.369 409.721, 428 410.756, 428 411.380 C 428 412.005, 429.125 414.629, 430.500 417.212 C 431.875 419.795, 433.014 422.717, 433.032 423.704 C 433.049 424.692, 433.692 426.329, 434.459 427.342 C 435.227 428.355, 436.162 431.055, 436.537 433.342 C 436.911 435.629, 437.812 438.176, 438.539 439.002 C 439.266 439.828, 440.374 441.853, 441.001 443.502 C 441.992 446.109, 442.266 446.275, 443.106 444.776 C 443.748 443.627, 443.583 440.121, 442.611 434.276 C 441.808 429.449, 440.856 420.550, 440.497 414.500 C 440.137 408.450, 439.230 400.350, 438.481 396.500 C 437.732 392.650, 436.659 385.564, 436.096 380.753 C 435.533 375.942, 434.633 371.182, 434.094 370.176 C 433.555 369.169, 432.834 365.906, 432.491 362.923 C 432.147 359.940, 431.246 355.700, 430.487 353.500 C 429.728 351.300, 428.664 347.250, 428.122 344.500 C 425.325 330.319, 414.550 304.580, 405.516 290.500 C 396.035 275.724, 379.612 262.411, 368.500 260.493 C 366.300 260.114, 362.281 259.173, 359.568 258.402 C 353.247 256.605, 351.903 256.703, 343.717 259.565 M 532.811 259.534 C 525.304 262.160, 522.689 263.653, 515.500 269.419 C 510.374 273.531, 501.017 283.016, 501.006 284.112 C 501.003 284.449, 499.590 286.474, 497.866 288.612 C 496.142 290.751, 493.878 294.300, 492.835 296.500 C 491.792 298.700, 490.502 301.175, 489.969 302 C 489.435 302.825, 488.550 304.625, 488.002 306 C 487.453 307.375, 486.586 309.175, 486.073 310 C 483.870 313.547, 477.476 329.866, 476.082 335.500 C 473.902 344.311, 472.687 348.770, 470.885 354.570 C 469.848 357.909, 469 361.977, 469 363.610 C 469 365.244, 468.284 369.262, 467.410 372.540 C 466.535 375.818, 465.209 383.225, 464.463 389 C 463.717 394.775, 462.661 402.650, 462.117 406.500 C 461.573 410.350, 460.638 424.525, 460.041 438 C 459.443 451.475, 458.694 464.376, 458.376 466.670 C 458.057 468.963, 458.112 472.703, 458.497 474.982 C 459.047 478.239, 459.763 479.330, 461.848 480.089 C 463.307 480.619, 465.850 481.663, 467.500 482.409 C 474.052 485.370, 497.742 491.606, 506 492.543 C 509.025 492.887, 514.200 493.887, 517.500 494.765 C 522.161 496.006, 528.743 496.371, 547 496.401 C 566.885 496.434, 572.731 496.083, 585 494.119 C 592.975 492.842, 602.388 490.943, 605.918 489.899 C 609.449 488.854, 613.125 488, 614.087 488 C 615.050 488, 617.112 487.347, 618.669 486.549 C 620.226 485.751, 623.645 484.132, 626.267 482.952 C 628.889 481.771, 631.499 479.935, 632.068 478.872 C 633.302 476.567, 631.593 425.785, 630.070 419.508 C 629.537 417.312, 628.810 410.787, 628.454 405.008 C 628.097 399.228, 627.212 392.025, 626.486 389 C 625.761 385.975, 624.874 380.575, 624.516 377 C 624.158 373.425, 623.251 368.475, 622.501 366 C 621.751 363.525, 620.849 359.475, 620.497 357 C 620.144 354.525, 618.988 349.911, 617.928 346.746 C 616.868 343.581, 616 340.092, 616 338.992 C 616 337.893, 615.100 335.314, 614 333.261 C 612.900 331.209, 612 328.857, 612 328.034 C 612 324.867, 602.243 303.187, 596.654 293.935 C 588.417 280.302, 576.530 268.773, 564.973 263.210 C 560.516 261.065, 544.349 256.913, 541.171 257.097 C 540.252 257.150, 536.490 258.247, 532.811 259.534 M 708.344 280.098 C 699.637 281.548, 692.683 286.114, 682.474 297.084 C 681.663 297.955, 681 298.989, 681 299.382 C 681 299.776, 679.200 302.807, 677 306.119 C 674.800 309.431, 672.998 312.672, 672.996 313.321 C 672.994 313.969, 672.170 315.850, 671.165 317.500 C 670.161 319.150, 669.022 321.850, 668.635 323.500 C 668.248 325.150, 667.327 327.850, 666.590 329.500 C 661.405 341.097, 654.898 371.048, 652.469 394.500 C 651.728 401.650, 650.673 410.200, 650.125 413.500 C 649.578 416.800, 648.835 432.006, 648.476 447.291 C 647.722 479.365, 647.704 479.279, 655.481 480.445 C 658.009 480.824, 661.747 481.857, 663.788 482.741 C 669.411 485.175, 725.250 485.137, 732.517 482.693 C 735.257 481.772, 739.975 480.369, 743 479.577 C 755.029 476.427, 768.111 471.961, 770.186 470.298 C 770.909 469.719, 772.625 468.920, 774 468.522 C 775.375 468.125, 778.188 466.659, 780.250 465.264 L 784 462.728 784.014 440.114 C 784.030 415.236, 781.327 383.133, 777.927 367.816 C 776.867 363.040, 776 357.933, 776 356.467 C 776 355.001, 775.359 352.384, 774.575 350.651 C 773.791 348.918, 772.694 345.475, 772.138 343 C 770.075 333.820, 767.820 327.829, 761.976 316 C 756.803 305.530, 755.482 303.302, 751.467 298.268 C 742.614 287.170, 734.197 281.544, 724.887 280.503 C 721.924 280.172, 718.150 279.752, 716.500 279.570 C 714.850 279.388, 711.180 279.626, 708.344 280.098 M 171.921 283.320 C 166.929 285.271, 156.007 292.564, 155.995 293.955 C 155.993 294.255, 154.484 296.140, 152.643 298.145 C 150.801 300.149, 148.996 302.399, 148.631 303.145 C 148.266 303.890, 146.634 306.525, 145.004 309 C 143.374 311.475, 141.581 314.625, 141.020 316 C 140.458 317.375, 139.596 319.207, 139.103 320.071 C 136.140 325.264, 130.164 342.878, 128.609 351 C 127.924 354.575, 126.894 358.400, 126.319 359.500 C 125.744 360.600, 124.987 364.735, 124.636 368.688 C 124.285 372.642, 123.527 377.115, 122.951 378.628 C 121.212 383.202, 119.015 418.112, 119.007 441.285 C 119.001 459.663, 119.253 463.456, 120.615 465.535 C 121.503 466.891, 123.018 468, 123.980 468 C 124.943 468, 126.874 468.900, 128.273 470 C 129.671 471.100, 131.426 472, 132.173 472 C 132.919 472, 135.098 472.840, 137.015 473.867 C 138.932 474.893, 142.075 476.076, 144 476.494 C 145.925 476.913, 148.388 477.873, 149.473 478.628 C 150.557 479.382, 152.468 480, 153.719 480 C 154.969 480, 158.581 480.877, 161.746 481.948 C 180.855 488.418, 235.154 487.735, 249.589 480.844 L 254.500 478.500 254.455 462 C 254.398 441.479, 252.353 408.963, 250.492 399 C 249.722 394.875, 248.809 388.125, 248.464 384 C 248.119 379.875, 247.223 374.475, 246.473 372 C 245.724 369.525, 244.800 364.800, 244.421 361.500 C 244.042 358.200, 243.286 354.375, 242.740 353 C 242.195 351.625, 241.164 348.025, 240.450 345 C 238.918 338.514, 236.426 331.109, 233.850 325.390 C 232.833 323.130, 232 320.598, 232 319.763 C 232 318.928, 231.369 317.721, 230.598 317.081 C 229.827 316.442, 228.921 314.823, 228.586 313.485 C 226.485 305.115, 210.296 286.792, 202.983 284.507 C 201.617 284.080, 199.612 283.116, 198.527 282.365 C 195.224 280.079, 178.701 280.672, 171.921 283.320 M 514.687 351.805 C 513.209 353.347, 512 355.607, 512 356.826 C 512 359.521, 508.178 373.724, 506.706 376.500 C 506.123 377.600, 505.138 379.468, 504.518 380.650 C 503.283 383.007, 497.727 388, 496.341 388 C 495.862 388, 493.902 388.836, 491.985 389.857 C 490.068 390.879, 486.250 392.037, 483.500 392.432 C 474.885 393.667, 469.145 396.145, 468.126 399.068 C 467.072 402.093, 467.730 406.699, 469.369 407.765 C 470.515 408.510, 476.016 410.037, 486 412.382 C 495.574 414.630, 502.022 418.852, 505.351 425.052 C 507.548 429.143, 512 444.057, 512 447.324 C 512 451.690, 517.932 456.414, 521.618 454.984 C 524.774 453.759, 527.704 448.206, 528.468 442 C 529.315 435.117, 532.584 426.607, 536.198 421.878 C 539.098 418.082, 547.196 413.551, 552.786 412.597 C 554.594 412.288, 559.229 411.077, 563.087 409.905 C 571.093 407.473, 573.577 404.905, 572.531 400.141 C 571.987 397.664, 570.989 396.876, 566.193 395.139 C 563.062 394.005, 558.250 392.771, 555.500 392.396 C 552.750 392.021, 548.932 390.879, 547.015 389.857 C 545.098 388.836, 543.041 388, 542.444 388 C 540.419 388, 533.848 379.378, 531.535 373.687 C 530.269 370.573, 528.922 365.432, 528.540 362.263 C 527.147 350.675, 520.544 345.691, 514.687 351.805 M 343.141 371.022 C 340.743 372.110, 338.395 373, 337.922 373 C 335.769 373, 324.319 381.985, 318.017 388.618 C 309.478 397.609, 306.046 402.742, 299.043 417 C 297.288 420.575, 295.210 424.694, 294.426 426.154 C 293.641 427.614, 293 429.385, 293 430.089 C 293 430.793, 292.185 433.198, 291.188 435.434 C 288.872 440.631, 285.332 451.478, 284.477 456 C 284.113 457.925, 283.184 461.525, 282.413 464 C 280.650 469.655, 278.059 482.499, 276.965 491 C 276.505 494.575, 275.431 501.550, 274.578 506.500 C 272.998 515.674, 271.899 529.403, 269.805 566.142 C 268.743 584.783, 268.787 587.026, 270.257 589.270 C 271.153 590.636, 273.148 592.050, 274.693 592.412 C 276.237 592.773, 278.850 593.686, 280.500 594.440 C 287.346 597.568, 311.272 603.341, 324.038 604.945 C 328.734 605.535, 334.131 606.464, 336.032 607.009 C 340.642 608.331, 375.929 608.267, 383.500 606.923 C 386.800 606.337, 394 605.274, 399.500 604.560 C 412.978 602.811, 430.436 598.180, 436 594.876 C 436.825 594.386, 438.625 593.435, 440 592.763 C 441.375 592.091, 442.831 591.082, 443.235 590.520 C 444.289 589.056, 444.170 563.893, 443.063 554.474 C 442.548 550.088, 441.824 542.759, 441.454 538.187 C 440.727 529.214, 439.647 527.343, 433.500 524.415 C 431.850 523.629, 428.700 521.909, 426.500 520.594 C 424.300 519.278, 419.350 516.542, 415.500 514.513 C 411.650 512.483, 406.700 509.791, 404.500 508.529 C 402.300 507.267, 397.350 504.561, 393.500 502.516 C 389.650 500.471, 384.700 497.724, 382.500 496.411 C 380.300 495.098, 377.375 493.562, 376 492.997 C 372.984 491.758, 369 486.198, 369 483.230 C 369 482.050, 370.730 479.265, 372.845 477.042 C 377.037 472.636, 380.988 471.768, 384.559 474.468 C 385.626 475.276, 387.175 475.965, 388 475.999 C 388.825 476.034, 391.750 477.169, 394.500 478.522 C 397.250 479.875, 400.026 480.986, 400.669 480.991 C 401.312 480.996, 403.112 481.615, 404.669 482.367 C 413.571 486.667, 416.593 488.005, 417.390 488.003 C 418.250 488, 424.484 490.694, 430.331 493.595 C 435.700 496.259, 436.357 495.686, 435.653 488.954 C 435.305 485.629, 434.592 482.106, 434.068 481.127 C 433.544 480.147, 432.824 476.906, 432.468 473.923 C 432.113 470.940, 430.962 465.911, 429.911 462.746 C 428.860 459.581, 427.997 455.981, 427.994 454.746 C 427.990 453.511, 427.358 451.293, 426.588 449.817 C 425.818 448.342, 424.887 445.642, 424.520 443.817 C 423.533 438.926, 417.832 424.308, 414.841 419 C 414.376 418.175, 413.547 416.375, 412.998 415 C 412.450 413.625, 411.571 411.825, 411.046 411 C 410.520 410.175, 408.663 407.025, 406.919 404 C 405.175 400.975, 403.142 397.825, 402.401 397 C 391.075 384.384, 381.588 376.073, 378.450 376.018 C 377.873 376.008, 376.870 375.470, 376.223 374.823 C 374.143 372.743, 359.691 369.078, 353.500 369.061 C 349.627 369.050, 345.955 369.745, 343.141 371.022 M 516.719 388.075 C 515.061 391.982, 512.152 395.281, 506.735 399.398 C 503.762 401.658, 503.210 402.548, 504.108 403.630 C 504.733 404.383, 505.752 405.002, 506.372 405.005 C 508.063 405.013, 517 414.619, 517 416.428 C 517 418.654, 519.309 418.376, 521.575 415.877 C 526.838 410.074, 532.399 405.008, 534.101 404.468 C 536.807 403.609, 536.449 401.515, 533.250 399.487 C 531.737 398.528, 527.726 394.798, 524.337 391.197 L 518.173 384.650 516.719 388.075 M 182.362 507.250 C 180.343 509.536, 177.689 517.247, 176.425 524.500 C 174.249 536.982, 164.206 546.606, 151.473 548.411 C 144.036 549.466, 137.773 551.969, 135.255 554.893 C 132.460 558.139, 132.460 558.867, 135.255 562.083 C 137.519 564.689, 144.360 567.185, 152.954 568.542 C 165.249 570.482, 174.537 579.800, 176.383 592.045 C 177.596 600.091, 180.610 608.196, 183.101 610.111 C 186.232 612.519, 187.376 612.462, 190.383 609.750 C 192.882 607.496, 197 596.115, 197 591.462 C 197 588.597, 200.605 581.398, 204.113 577.257 C 207.205 573.607, 215.025 569.436, 220.555 568.487 C 236.214 565.801, 242.372 561.301, 239.004 555.008 C 237.840 552.833, 229.566 549.562, 222.701 548.562 C 216.651 547.681, 208.674 544.020, 204.878 540.383 C 201.226 536.884, 197.512 528.901, 196.549 522.478 C 194.366 507.920, 187.900 500.979, 182.362 507.250 M 183.511 545.162 C 180.388 549.882, 174.362 555.727, 171.750 556.570 C 168.903 557.489, 169.815 559.307, 174.752 562.553 C 177.305 564.232, 180.768 567.695, 182.447 570.248 C 184.126 572.802, 185.950 574.906, 186.500 574.924 C 187.050 574.941, 188.850 572.943, 190.500 570.484 C 193.147 566.537, 195.713 564.188, 202.289 559.693 C 203.911 558.584, 203.593 558.101, 198.864 554.494 C 195.997 552.308, 192.112 548.377, 190.232 545.759 C 188.351 543.142, 186.689 541, 186.539 541 C 186.389 541, 185.026 542.873, 183.511 545.162 M 457.639 547.694 C 456.297 549.037, 457.005 555.065, 458.577 555.668 C 459.444 556.001, 460.568 557.363, 461.075 558.697 C 461.582 560.030, 462.447 560.842, 462.998 560.501 C 464.454 559.601, 464.225 557.432, 462.526 556.022 C 461.716 555.349, 460.765 553.264, 460.413 551.388 C 459.756 547.886, 458.766 546.567, 457.639 547.694" stroke="none" fill="rgb(85,85,85)" fill-rule="evenodd"/>
</svg>