<?xml version="1.0" encoding="UTF-8" standalone="no"?>
<!-- Created with Inkscape (http://www.inkscape.org/) -->

<svg
   width="46.683876mm"
   height="48.744717mm"
   viewBox="0 0 46.683876 48.744717"
   version="1.1"
   id="svg1"
   inkscape:version="1.4.2 (f4327f4, 2025-05-13)"
   sodipodi:docname="tratamento-de-canal.svg"
   xmlns:inkscape="http://www.inkscape.org/namespaces/inkscape"
   xmlns:sodipodi="http://sodipodi.sourceforge.net/DTD/sodipodi-0.dtd"
   xmlns="http://www.w3.org/2000/svg"
   xmlns:svg="http://www.w3.org/2000/svg">
  <sodipodi:namedview
     id="namedview1"
     pagecolor="#505050"
     bordercolor="#ffffff"
     borderopacity="1"
     inkscape:showpageshadow="0"
     inkscape:pageopacity="0"
     inkscape:pagecheckerboard="1"
     inkscape:deskcolor="#505050"
     inkscape:document-units="mm"
     inkscape:zoom="1.4396184"
     inkscape:cx="99.679192"
     inkscape:cy="130.59016"
     inkscape:window-width="1920"
     inkscape:window-height="1010"
     inkscape:window-x="-6"
     inkscape:window-y="-6"
     inkscape:window-maximized="1"
     inkscape:current-layer="layer1" />
  <defs
     id="defs1" />
  <g
     inkscape:label="Camada 1"
     inkscape:groupmode="layer"
     id="layer1"
     transform="translate(-167.74583,-123.03125)">
    <path
       style="fill:#d70050;fill-opacity:1;stroke-width:2.64583;paint-order:stroke markers fill"
       d="m 168.57088,144.76816 c 2.21987,2.4514 3.33403,3.38014 5.95997,5.37649 2.16749,6.2892 6.79668,16.96051 7.58543,16.92133 0.78875,-0.0392 0.82357,-5.99216 4.16782,-10.66961 1.70782,1.03139 2.10106,1.38182 3.50096,2.41734 -4.57575,7.40527 -1.73454,12.74293 -7.38,12.83687 -5.9231,0.15288 -10.6359,-16.52431 -13.83418,-26.88242 z"
       id="path2-1"
       sodipodi:nodetypes="cczcccc" />
    <path
       id="path1-1-7-4"
       style="display:inline;fill:#d70050;fill-opacity:1;stroke-width:2.64583;paint-order:stroke markers fill"
       d="M 201.46108 123.03745 C 195.79461 122.84354 191.08704 127.1633 191.08704 127.1633 C 191.08704 127.1633 188.79944 124.90602 185.1582 123.73095 C 185.12916 123.72158 185.10008 123.71228 185.07087 123.70304 A 1.84706 1.84706 0 0 0 184.47866 123.60176 A 1.84706 1.84706 0 0 0 182.63278 125.44919 C 182.63278 127.36696 182.10754 128.76637 181.3202 129.56832 C 180.53286 130.37027 179.41313 130.8222 177.36126 130.51555 A 1.8472447 1.8472447 0 0 0 175.24046 132.34179 C 175.24046 134.22692 174.76791 135.36675 174.01366 136.07593 C 173.25941 136.78512 172.01116 137.25387 169.87283 137.14667 A 1.84706 1.84706 0 0 0 167.93755 138.8985 A 1.84706 1.84706 0 0 0 167.99233 139.43593 C 167.9972 139.45794 168.0023 139.48013 168.00731 139.50208 C 169.77983 147.26014 180.36538 151.25811 185.075 153.68726 C 190.21147 156.33657 192.88276 158.07211 194.76175 161.68005 C 196.64074 165.32678 195.36304 171.74778 199.88805 171.77246 C 203.7462 171.96386 207.26032 164.54884 209.76755 157.35009 C 212.27477 150.15134 213.38749 145.12448 213.38749 145.12448 C 213.38749 145.12448 210.94099 148.30138 207.47312 149.91488 C 206.25587 154.44585 201.43324 166.80069 200.04618 166.77225 C 198.65913 166.74385 200.01738 161.15079 195.56687 156.2809 C 191.12924 150.39639 177.2615 146.67493 173.14808 140.54646 C 173.10303 140.55752 173.05192 140.55874 173.00649 140.5692 C 174.38115 140.25276 175.58714 139.66818 176.54478 138.76776 C 177.80973 137.57839 178.38588 135.89538 178.66041 134.07399 C 180.75524 134.00119 182.66596 133.46941 183.95518 132.15627 C 184.79753 131.29829 185.39279 130.25911 185.77625 129.1084 C 188.75978 131.13645 190.8514 134.23677 190.8514 134.23677 C 190.8514 134.23677 196.34461 126.8902 201.1071 127.39946 C 209.53727 128.82563 210.06167 135.27181 210.08071 137.03143 C 209.18282 144.87606 198.6387 147.37076 192.76497 151.16597 C 194.17025 152.09153 194.61185 152.51555 196.141 154.02057 C 202.63231 150.44454 214.5867 146.42196 214.42825 136.94771 C 214.25308 126.47437 206.04392 122.9813 201.46108 123.03745 z M 185.97262 124.3676 C 185.97809 124.37512 185.98329 124.38274 185.98864 124.39034 A 1.84706 1.84706 0 0 0 185.97262 124.3676 z M 186.11422 124.59705 C 186.12182 124.61155 186.12871 124.62625 186.13592 124.64097 A 1.84706 1.84706 0 0 0 186.11422 124.59705 z M 186.2186 124.83941 C 186.22638 124.86144 186.23439 124.88318 186.24134 124.90555 A 1.84706 1.84706 0 0 0 186.2186 124.83941 z M 186.29147 125.11381 C 186.29513 125.1334 186.30032 125.15243 186.30335 125.1722 A 1.84706 1.84706 0 0 0 186.29147 125.11381 z M 168.02902 139.56202 A 1.84706 1.84706 0 0 0 168.06622 139.66383 C 168.05312 139.6303 168.04023 139.59655 168.02902 139.56202 z M 168.12979 139.808 A 1.84706 1.84706 0 0 0 168.17681 139.89689 C 168.16038 139.86771 168.14468 139.83819 168.12979 139.808 z M 168.39489 140.20643 A 1.84706 1.84706 0 0 0 168.42279 140.23537 C 168.41373 140.22545 168.40374 140.21655 168.39489 140.20643 z M 168.59177 140.39867 A 1.84706 1.84706 0 0 0 168.64397 140.44001 C 168.62647 140.42622 168.60876 140.41307 168.59177 140.39867 z M 168.81295 140.55886 A 1.84706 1.84706 0 0 0 168.88426 140.60072 C 168.86011 140.58719 168.83644 140.57344 168.81295 140.55886 z M 169.06306 140.68805 A 1.84706 1.84706 0 0 0 169.15505 140.72629 C 169.1237 140.71491 169.09363 140.70107 169.06306 140.68805 z M 169.21913 140.74851 A 1.84706 1.84706 0 0 0 169.4155 140.80019 C 169.34862 140.78656 169.28333 140.7692 169.21913 140.74851 z M 171.59211 140.79451 C 170.98074 140.85062 170.34778 140.86885 169.68938 140.83585 C 169.61474 140.83198 169.54152 140.82202 169.46924 140.80949 A 1.84706 1.84706 0 0 0 169.68938 140.83585 C 170.34775 140.86885 170.98078 140.85068 171.59211 140.79451 z " />
    <path
       d="m 117.80206,96.725747 h 37.96138 v 37.961383 h -37.96138 z"
       fill="none"
       id="path1"
       style="stroke-width:1.58172" />
    <path
       style="baseline-shift:baseline;display:inline;overflow:visible;vector-effect:none;fill:currentColor;stroke-linecap:round;stroke-linejoin:round;enable-background:accumulate;stop-color:#000000;stop-opacity:1;opacity:1"
       d="m 184.47852,123.60156 a 1.84706,1.84706 0 0 0 -1.84571,1.84766 c 0,1.91777 -0.52516,3.31719 -1.3125,4.11914 -0.78734,0.80195 -1.90711,1.25391 -3.95898,0.94726 a 1.8472447,1.8472447 0 0 0 -2.1211,1.82618 c 0,1.88513 -0.47231,3.02519 -1.22656,3.73437 -0.75425,0.70919 -2.00229,1.17751 -4.14062,1.07031 a 1.84706,1.84706 0 0 0 -1.93555,1.75196 1.84706,1.84706 0 0 0 1.75195,1.9375 c 2.78225,0.13947 5.1868,-0.49939 6.85547,-2.06836 1.26495,-1.18937 1.84071,-2.87197 2.11524,-4.69336 2.09483,-0.0728 4.0057,-0.60483 5.29492,-1.91797 1.67221,-1.70324 2.37109,-4.12046 2.37109,-6.70703 a 1.84706,1.84706 0 0 0 -1.84765,-1.84766 z"
       id="path2" />
    <path
       style="baseline-shift:baseline;display:inline;overflow:visible;vector-effect:none;fill:#d70050;stroke-linecap:round;stroke-linejoin:round;enable-background:accumulate;stop-color:#000000;stop-opacity:1;opacity:1;fill-opacity:1"
       d="m 184.47852,123.60156 a 1.84706,1.84706 0 0 0 -1.84571,1.84766 c 0,1.91777 -0.52516,3.31719 -1.3125,4.11914 -0.78734,0.80195 -1.90711,1.25391 -3.95898,0.94726 a 1.8472447,1.8472447 0 0 0 -2.1211,1.82618 c 0,1.88513 -0.47231,3.02519 -1.22656,3.73437 -0.75425,0.70919 -2.00229,1.17751 -4.14062,1.07031 a 1.84706,1.84706 0 0 0 -1.93555,1.75196 1.84706,1.84706 0 0 0 1.75195,1.9375 c 2.78225,0.13947 5.1868,-0.49939 6.85547,-2.06836 1.26495,-1.18937 1.84071,-2.87197 2.11524,-4.69336 2.09483,-0.0728 4.0057,-0.60483 5.29492,-1.91797 1.67221,-1.70324 2.37109,-4.12046 2.37109,-6.70703 a 1.84706,1.84706 0 0 0 -1.84765,-1.84766 z"
       id="path3" />
  </g>
</svg>
