<?xml version="1.0" encoding="UTF-8" standalone="no"?>
<!-- Created with Inkscape (http://www.inkscape.org/) -->

<svg
   width="60.814449mm"
   height="35.703117mm"
   viewBox="0 0 60.814449 35.703118"
   version="1.1"
   id="svg1"
   inkscape:version="1.4.2 (f4327f4, 2025-05-13)"
   sodipodi:docname="tratamento-de-gengiva.svg"
   xmlns:inkscape="http://www.inkscape.org/namespaces/inkscape"
   xmlns:sodipodi="http://sodipodi.sourceforge.net/DTD/sodipodi-0.dtd"
   xmlns="http://www.w3.org/2000/svg"
   xmlns:svg="http://www.w3.org/2000/svg">
  <sodipodi:namedview
     id="namedview1"
     pagecolor="#505050"
     bordercolor="#ffffff"
     borderopacity="1"
     inkscape:showpageshadow="0"
     inkscape:pageopacity="0"
     inkscape:pagecheckerboard="1"
     inkscape:deskcolor="#505050"
     inkscape:document-units="mm"
     showguides="true"
     inkscape:zoom="2"
     inkscape:cx="69.75"
     inkscape:cy="158.5"
     inkscape:window-width="1920"
     inkscape:window-height="1010"
     inkscape:window-x="-6"
     inkscape:window-y="-6"
     inkscape:window-maximized="1"
     inkscape:current-layer="layer1">
    <sodipodi:guide
       position="9.3117222,15.295322"
       orientation="0,-1"
       id="guide1"
       inkscape:locked="false" />
    <sodipodi:guide
       position="9.9549772,20.533255"
       orientation="0,-1"
       id="guide2"
       inkscape:locked="false" />
    <sodipodi:guide
       position="30.355349,34.684865"
       orientation="1,0"
       id="guide3"
       inkscape:locked="false" />
    <sodipodi:guide
       position="2.0521305,24.392785"
       orientation="1,0"
       id="guide4"
       inkscape:locked="false" />
    <sodipodi:guide
       position="58.750461,29.998292"
       orientation="1,0"
       id="guide5"
       inkscape:locked="false" />
  </sodipodi:namedview>
  <defs
     id="defs1" />
  <g
     inkscape:label="Camada 1"
     inkscape:groupmode="layer"
     id="layer1"
     transform="translate(-215.31641,-66.410286)"
     style="display:inline">
    <path
       id="path2-1"
       style="fill:#d70050;fill-opacity:1;stroke-width:2.64583;paint-order:stroke markers fill"
       d="m 223.33985,88.147082 c 0.37563,1.216528 0.77221,2.520308 1.18908,3.873665 0.74882,0.240474 1.36547,0.586826 1.89084,0.861963 0.92174,0.482728 1.8482,0.994145 3.18895,1.520837 -0.10756,-0.301206 -0.21092,-0.59486 -0.30902,-0.879533 -2.62595,-1.99635 -3.73997,-2.925538 -5.95985,-5.376932 z" />
    <path
       id="path1-1-7-4"
       style="display:inline;fill:#d70050;fill-opacity:1;stroke-width:2.64583;paint-order:stroke markers fill"
       d="m 235.83573,66.416625 c -5.94322,-0.09025 -13.37845,5.039519 -13.32063,14.264246 0.0527,8.415542 10.15648,12.908518 15.82849,15.643489 2.049,0.200397 4.45523,0.311873 7.29723,0.285254 0.47247,-0.0044 0.93319,-0.01244 1.38286,-0.02377 -7.16358,-5.16268 -20.03322,-9.046962 -20.26491,-16.022794 -0.27523,-8.286467 6.49957,-9.400334 8.60567,-9.784416 5.44036,-0.300726 10.25571,6.837309 10.25571,6.837309 0,0 5.49321,-7.346566 10.2557,-6.837309 8.43017,1.426175 8.95457,7.872348 8.97361,9.63197 -0.89788,7.844633 -11.442,10.339326 -17.31574,14.134538 1.05776,0.696668 1.56965,1.109334 2.41019,1.912545 1.21959,-0.07793 2.34184,-0.182398 3.37654,-0.307475 6.65229,-3.315864 16.01691,-7.430716 15.87655,-15.823324 -0.17516,-10.47334 -8.38433,-13.966409 -12.96717,-13.910262 -5.66647,-0.193916 -10.37404,4.125847 -10.37404,4.125847 0,0 -4.07684,-4.035592 -10.02006,-4.125848 z m 32.32051,22.087024 c 0,0 -2.4465,3.176899 -5.91437,4.790405 -0.0662,0.2463 -0.14305,0.515762 -0.22944,0.805119 1.42333,-0.556558 2.43537,-1.094204 3.41116,-1.585433 0.55703,-0.280427 1.18418,-0.619987 1.93321,-0.855761 0.54307,-1.997687 0.79944,-3.15433 0.79944,-3.15433 z" />
    <path
       style="baseline-shift:baseline;display:inline;overflow:visible;opacity:1;vector-effect:none;fill:#d70050;fill-opacity:1;paint-order:stroke markers fill;enable-background:accumulate;stop-color:#000000;stop-opacity:1"
       d="m 269.18945,92.371094 c -1.38027,7.71e-4 -2.3285,0.537823 -3.3164,1.035156 -0.98791,0.497333 -2.07875,1.078689 -3.62305,1.673828 -3.08861,1.190279 -7.99087,2.448663 -16.59961,2.529297 -8.60715,0.08062 -13.3641,-1.096537 -16.29102,-2.228516 -1.46345,-0.565989 -2.47141,-1.122765 -3.40429,-1.611328 -0.93289,-0.488562 -1.87935,-1.043187 -3.25977,-1.037109 -2.72578,0.012 -4.2333,1.879941 -5.41406,3.298828 -1.18076,1.418887 -1.96484,2.804687 -1.96484,2.804687 l 3.91015,2.228513 c 0,0 0.6297,-1.092054 1.51367,-2.154294 0.88398,-1.06224 2.09291,-1.678255 1.97461,-1.677734 -0.0767,3.37e-4 0.29182,0.07277 1.15235,0.523437 0.86052,0.450667 2.12275,1.146854 3.86914,1.822266 3.49278,1.350825 8.91621,2.615915 17.95508,2.531255 9.03727,-0.0846 14.57525,-1.44448 18.17578,-2.832036 1.80026,-0.693781 3.11693,-1.392259 4.02929,-1.851563 0.91237,-0.459303 1.35791,-0.554721 1.29688,-0.554687 -0.0852,4.8e-5 0.0786,-0.002 0.41797,0.285156 0.33942,0.28719 0.77133,0.798026 1.14258,1.345703 0.7425,1.095354 1.23828,2.238277 1.23828,2.238277 l 4.13867,-1.763668 c 0,0 -0.61929,-1.476012 -1.65234,-3 -0.51653,-0.761993 -1.13786,-1.561077 -1.95899,-2.255859 -0.82113,-0.694782 -1.92561,-1.350408 -3.33008,-1.349609 z"
       id="path6" />
    <path
       style="baseline-shift:baseline;display:inline;overflow:visible;vector-effect:none;fill:#d70050;paint-order:stroke markers fill;enable-background:accumulate;stop-color:#000000"
       d="m 269.18945,92.371094 c -1.38027,7.71e-4 -2.3285,0.537823 -3.3164,1.035156 -0.98791,0.497333 -2.07875,1.078689 -3.62305,1.673828 -3.08861,1.190279 -7.99087,2.448663 -16.59961,2.529297 -8.60715,0.08062 -13.3641,-1.096537 -16.29102,-2.228516 -1.46345,-0.565989 -2.47141,-1.122765 -3.40429,-1.611328 -0.93289,-0.488562 -1.87935,-1.043187 -3.25977,-1.037109 -2.72578,0.012 -4.2333,1.879941 -5.41406,3.298828 -1.18076,1.418887 -1.96484,2.804687 -1.96484,2.804687 l 3.91015,2.228513 c 0,0 0.6297,-1.092054 1.51367,-2.154294 0.88398,-1.06224 2.09291,-1.678255 1.97461,-1.677734 -0.0767,3.37e-4 0.29182,0.07277 1.15235,0.523437 0.86052,0.450667 2.12275,1.146854 3.86914,1.822266 3.49278,1.350825 8.91621,2.615915 17.95508,2.531255 9.03727,-0.0846 14.57525,-1.44448 18.17578,-2.832036 1.80026,-0.693781 3.11693,-1.392259 4.02929,-1.851563 0.91237,-0.459303 1.35791,-0.554721 1.29688,-0.554687 -0.0852,4.8e-5 0.0786,-0.002 0.41797,0.285156 0.33942,0.28719 0.77133,0.798026 1.14258,1.345703 0.7425,1.095354 1.23828,2.238277 1.23828,2.238277 l 4.13867,-1.763668 c 0,0 -0.61929,-1.476012 -1.65234,-3 -0.51653,-0.761993 -1.13786,-1.561077 -1.95899,-2.255859 -0.82113,-0.694782 -1.92561,-1.350408 -3.33008,-1.349609 z"
       id="path9" />
  </g>
</svg>
